<svg width="94" height="107" viewBox="0 0 94 107" fill="none" xmlns="http://www.w3.org/2000/svg">
<path d="M33 53.5C33 83.0472 25.6127 107 16.5 107C7.3873 107 0 83.0472 0 53.5C0 23.9528 7.3873 0 16.5 0C25.6127 0 33 23.9528 33 53.5Z" fill="white"/>
<path d="M61.8 53.5C61.8 73.6584 55.9798 90 48.8 90C41.6203 90 35.8 73.6584 35.8 53.5C35.8 33.3416 41.6203 17 48.8 17C55.9798 17 61.8 33.3416 61.8 53.5Z" fill="white"/>
<path d="M79.6001 53.5C79.6001 64.8218 76.2422 74 72.1001 74C67.958 74 64.6001 64.8218 64.6001 53.5C64.6001 42.1782 67.958 33 72.1001 33C76.2422 33 79.6001 42.1782 79.6001 53.5Z" fill="white"/>
<path d="M93.3999 53.5C93.3999 58.7467 90.9375 63 87.8999 63C84.8623 63 82.3999 58.7467 82.3999 53.5C82.3999 48.2533 84.8623 44 87.8999 44C90.9375 44 93.3999 48.2533 93.3999 53.5Z" fill="white"/>
</svg>
