<svg width="288" height="81" viewBox="0 0 288 81" fill="none" xmlns="http://www.w3.org/2000/svg">
<path d="M250.734 80.9999V72.8099H275.484C277.224 72.8099 278.094 71.9099 278.094 70.1099V56.6099H276.654C276.054 57.7499 275.184 58.8899 274.044 60.0299C272.964 61.1099 271.494 62.0099 269.634 62.7299C267.834 63.4499 265.494 63.8099 262.614 63.8099C259.254 63.8099 256.254 63.0599 253.614 61.5599C251.034 60.0599 248.994 57.9299 247.494 55.1699C245.994 52.4099 245.244 49.1399 245.244 45.3599V18.6299H254.604V44.6399C254.604 48.4199 255.534 51.2399 257.394 53.0999C259.314 54.8999 261.984 55.7999 265.404 55.7999C269.184 55.7999 272.214 54.5399 274.494 52.0199C276.774 49.4999 277.914 45.8699 277.914 41.1299V18.6299H287.274V71.9999C287.274 74.7599 286.464 76.9499 284.844 78.5699C283.284 80.1899 281.124 80.9999 278.364 80.9999H250.734Z" fill="white"/>
<path d="M225.367 63V0H234.727V63H225.367Z" fill="white"/>
<path d="M178.409 63V0H187.769V35.91H189.209L206.489 18.63H218.999L196.589 40.14L219.719 63H207.389L189.209 44.64H187.769V63H178.409Z" fill="white"/>
<path d="M148.457 64.2601C144.197 64.2601 140.327 63.3601 136.847 61.5601C133.427 59.7601 130.697 57.1501 128.657 53.7301C126.677 50.3101 125.687 46.2001 125.687 41.4001V40.2301C125.687 35.4301 126.677 31.3501 128.657 27.9901C130.697 24.5701 133.427 21.9601 136.847 20.1601C140.327 18.3001 144.197 17.3701 148.457 17.3701C152.717 17.3701 156.347 18.1501 159.347 19.7101C162.347 21.2101 164.747 23.2801 166.547 25.9201C168.407 28.5001 169.607 31.3501 170.147 34.4701L161.057 36.3601C160.757 34.3801 160.127 32.6101 159.167 31.0501C158.207 29.4301 156.857 28.1401 155.117 27.1801C153.377 26.2201 151.217 25.7401 148.637 25.7401C146.057 25.7401 143.747 26.3101 141.707 27.4501C139.667 28.5901 138.047 30.2701 136.847 32.4901C135.647 34.6501 135.047 37.2901 135.047 40.4101V41.2201C135.047 44.3401 135.647 47.0101 136.847 49.2301C138.047 51.3901 139.667 53.0401 141.707 54.1801C143.747 55.3201 146.057 55.8901 148.637 55.8901C152.537 55.8901 155.477 54.9001 157.457 52.9201C159.497 50.8801 160.787 48.3001 161.327 45.1801L170.417 47.3401C169.697 50.4001 168.407 53.2201 166.547 55.8001C164.747 58.3801 162.347 60.4501 159.347 62.0101C156.347 63.5101 152.717 64.2601 148.457 64.2601Z" fill="white"/>
<path d="M93.3383 64.2601C90.2183 64.2601 87.3983 63.7201 84.8783 62.6401C82.3583 61.5601 80.3783 59.9701 78.9383 57.8701C77.4983 55.7701 76.7783 53.2201 76.7783 50.2201C76.7783 47.1601 77.4983 44.6401 78.9383 42.6601C80.3783 40.6201 82.3883 39.0901 84.9683 38.0701C87.5483 37.0501 90.4583 36.5401 93.6983 36.5401H107.198V33.6601C107.198 31.0801 106.418 29.0101 104.858 27.4501C103.298 25.8901 100.898 25.1101 97.6583 25.1101C94.4783 25.1101 92.0483 25.8601 90.3683 27.3601C88.7483 28.8601 87.6683 30.8101 87.1283 33.2101L78.3983 30.4201C79.1183 28.0201 80.2583 25.8601 81.8183 23.9401C83.4383 21.9601 85.5683 20.3701 88.2083 19.1701C90.8483 17.9701 94.0283 17.3701 97.7483 17.3701C103.508 17.3701 108.038 18.8401 111.338 21.7801C114.638 24.7201 116.288 28.8901 116.288 34.2901V52.4701C116.288 54.2701 117.128 55.1701 118.808 55.1701H122.588V63.0001H115.658C113.558 63.0001 111.848 62.4601 110.528 61.3801C109.208 60.3001 108.548 58.8301 108.548 56.9701V56.7001H107.108C106.688 57.6001 105.998 58.6501 105.038 59.8501C104.078 61.0501 102.668 62.1001 100.808 63.0001C98.9483 63.8401 96.4583 64.2601 93.3383 64.2601ZM94.7783 56.5201C98.4383 56.5201 101.408 55.4701 103.688 53.3701C106.028 51.2701 107.198 48.3901 107.198 44.7301V43.7401H94.2383C91.7783 43.7401 89.7983 44.2801 88.2983 45.3601C86.8583 46.3801 86.1383 47.9101 86.1383 49.9501C86.1383 51.9301 86.8883 53.5201 88.3883 54.7201C89.9483 55.9201 92.0783 56.5201 94.7783 56.5201Z" fill="white"/>
<path d="M48.7839 63V18.63H57.9639V23.85H59.4039C60.1239 21.99 61.2639 20.64 62.8239 19.8C64.3839 18.9 66.3339 18.45 68.6739 18.45H73.9839V26.91H68.4039C65.3439 26.91 62.8539 27.72 60.9339 29.34C59.0739 30.96 58.1439 33.51 58.1439 36.99V63H48.7839Z" fill="white"/>
<path d="M19.6599 63V8.91H0.399902V0H48.8199V8.91H29.5599V63H19.6599Z" fill="white"/>
</svg>
